HIERARCHY
ROOT Hips
{
	OFFSET	0.000000	0.000000	0.000000
	CHANNELS 6 Xposition Yposition Zposition Zrotation Xrotation Yrotation
	JOINT LeftHip
	{
		OFFSET	4.740440	-3.195970	-0.322709
		CHANNELS 3 Zrotation Xrotation Yrotation
		JOINT LeftKnee
		{
			OFFSET	-1.605680	-15.592300	1.005510
			CHANNELS 3 Zrotation Xrotation Yrotation
			JOINT LeftAnkle
			{
				OFFSET	-0.632401	-16.421000	-1.413730
				CHANNELS 3 Zrotation Xrotation Yrotation
				End Site
				{
					OFFSET	0.008423	-2.933000	-1.684880
				}
			}
		}
	}
	JOINT RightHip
	{
		OFFSET	-4.740440	-3.195970	-0.322709
		CHANNELS 3 Zrotation Xrotation Yrotation
		JOINT RightKnee
		{
			OFFSET	1.605680	-15.592300	1.005510
			CHANNELS 3 Zrotation Xrotation Yrotation
			JOINT RightAnkle
			{
				OFFSET	0.632401	-16.421000	-1.413730
				CHANNELS 3 Zrotation Xrotation Yrotation
				End Site
				{
					OFFSET	-0.008423	-2.933000	-1.684880
				}
			}
		}
	}
	JOINT Chest
	{
		OFFSET	0.000000	3.468200	0.078401
		CHANNELS 3 Zrotation Xrotation Yrotation
		JOINT LeftCollar
		{
			OFFSET	3.857650	15.070700	-0.011583
			CHANNELS 3 Zrotation Xrotation Yrotation
			JOINT LeftShoulder
			{
				OFFSET	3.979720	-1.940530	-0.165223
				CHANNELS 3 Zrotation Xrotation Yrotation
				JOINT LeftElbow
				{
					OFFSET	0.615844	-10.986600	-0.673886
					CHANNELS 3 Zrotation Xrotation Yrotation
					JOINT LeftWrist
					{
						OFFSET	0.826843	-10.854500	1.034220
						CHANNELS 3 Zrotation Xrotation Yrotation
						End Site
						{
							OFFSET	-1.679080	-8.456540	0.936217
						}
					}
				}
			}
		}
		JOINT RightCollar
		{
			OFFSET	-3.857650	15.070700	-0.011583
			CHANNELS 3 Zrotation Xrotation Yrotation
			JOINT RightShoulder
			{
				OFFSET	-3.979720	-1.940530	-0.165223
				CHANNELS 3 Zrotation Xrotation Yrotation
				JOINT RightElbow
				{
					OFFSET	-0.615845	-10.986600	-0.673886
					CHANNELS 3 Zrotation Xrotation Yrotation
					JOINT RightWrist
					{
						OFFSET	-0.826843	-10.854500	1.034220
						CHANNELS 3 Zrotation Xrotation Yrotation
						End Site
						{
							OFFSET	1.679080	-8.456540	0.936217
						}
					}
				}
			}
		}
		JOINT Neck
		{
			OFFSET	0.000000	15.101400	0.055730
			CHANNELS 3 Zrotation Xrotation Yrotation
			JOINT Head
			{
				OFFSET	0.000000	4.185120	1.488260
				CHANNELS 3 Zrotation Xrotation Yrotation
				End Site
				{
					OFFSET	0.000000	7.773420	-0.106016
				}
			}
		}
	}
}
MOTION
Frames:     13
Frame Time: 0.016667
-1.523839	34.790169	73.729919	-178.996887	157.415161	8.067948	8.901169	2.778313	-8.606832	-9.971650	49.965553	17.976337	-11.528850	-25.221121	22.156595	-12.231168	-17.232000	-5.503565	13.125290	44.063805	64.795425	0.452883	-6.612385	-52.481407	-3.319622	39.429523	6.906140	-5.899954	4.103258	8.802630	3.669566	4.785697	-5.972752	1.805971	-53.737297	11.687140	20.570417	0.327627	-15.910727	-18.854845	-5.943674	-2.902664	-7.227091	1.913952	8.408469	20.982840	-46.833698	32.919407	-18.422771	0.059451	2.095421	-3.289746	-3.003183	2.768975	10.227471	-0.608351	-17.730846	
-1.726356	34.551228	74.605972	-178.445984	156.502167	6.778380	8.999997	1.746221	-7.358870	-11.009696	51.354900	18.561216	-9.815286	-25.913298	23.153101	-12.178548	-18.067387	-6.230857	11.817290	50.294380	64.442749	-2.014062	-4.980880	-54.621250	-3.546833	39.989136	7.333722	-6.158237	4.382757	7.875054	4.379177	3.227445	-5.591637	-0.085352	-53.589588	10.116683	20.295712	0.480519	-16.205153	-18.686899	-5.285205	-3.608795	-5.345942	1.766104	8.417586	17.101963	-43.790821	30.329988	-19.157417	0.029473	2.130953	-3.466175	-2.660825	2.999583	10.166709	-0.648181	-16.858917	
-1.747030	34.408188	74.902382	-178.297806	156.183990	6.269959	8.982791	1.593669	-7.001780	-11.396893	51.576973	18.939785	-8.720326	-26.860712	23.801884	-11.992559	-18.268450	-6.480036	9.766978	55.269333	64.365807	-4.455860	-5.791943	-54.407700	-3.569284	39.862690	7.038395	-6.292597	4.539838	8.102684	4.679307	2.810887	-5.497769	-0.917096	-53.600273	9.311607	20.221090	0.617337	-16.304998	-18.633650	-4.995934	-3.354968	-4.697445	1.884561	8.464859	15.856662	-42.863548	29.373322	-19.761818	1.580269	1.302862	-3.529438	-2.285810	3.514397	10.133385	-0.649723	-16.578981	
-1.934546	34.290192	75.652336	-178.139114	155.208054	4.891079	8.682837	1.516835	-6.376472	-12.628593	51.651726	20.595337	-7.417558	-26.882244	24.228731	-11.379123	-18.353050	-6.958282	4.418627	60.662762	68.247780	-3.200977	-4.088036	-56.102631	-4.173923	40.225510	7.724369	-6.185082	4.016565	7.216746	5.705287	1.769579	-5.251644	-3.742176	-53.954063	6.620288	20.058313	1.151098	-16.796051	-18.200661	-4.602122	-4.374732	-3.338864	2.479434	8.438948	13.075826	-40.197788	26.597458	-20.084911	0.137321	1.767089	-3.258341	-2.051879	3.303816	9.714210	-0.245962	-15.489811	
-2.010545	34.239677	75.891685	-178.172211	154.839035	4.492875	8.455600	1.553503	-6.346131	-13.137719	51.653206	21.326813	-7.033713	-26.953682	24.323738	-11.217084	-18.216585	-6.891495	1.564125	62.801903	70.378609	-2.823838	-4.282818	-56.060905	-4.326689	40.276138	7.664721	-6.121678	3.885780	7.109788	5.997405	1.442387	-5.250620	-4.666032	-54.175228	5.753539	20.047539	1.252358	-17.055714	-18.019629	-4.455470	-4.544443	-3.065419	2.725836	8.295764	12.502736	-39.359509	25.871778	-20.294022	0.212086	1.586970	-3.130961	-1.888424	3.358998	9.530097	-0.060119	-15.103297	
-2.269269	34.087326	76.595520	-178.240982	153.993576	3.165058	7.665356	1.043847	-6.124240	-14.727737	52.144352	23.232740	-6.084796	-26.499750	25.096090	-11.060823	-17.561361	-5.855940	-5.472147	68.897987	76.189606	-1.611214	-4.634353	-55.491310	-4.812913	40.126995	7.603531	-5.799148	3.386805	6.698831	6.928472	0.478080	-5.352317	-7.488057	-55.063969	3.103806	20.058783	1.293709	-17.776012	-17.293575	-4.001321	-5.197111	-2.569938	3.541407	7.512957	11.532935	-36.981441	24.576313	-21.100788	0.463373	0.834913	-2.622066	-1.567765	3.602132	9.030782	0.393509	-13.993276	
-2.323970	34.038372	76.864906	-178.237640	153.813766	2.710287	7.538612	0.709523	-6.112861	-15.446413	52.228676	23.966385	-5.794849	-26.367113	25.325226	-11.092711	-17.232029	-5.366434	-11.643599	72.468987	81.434067	-2.432367	-6.338659	-54.831631	-4.906716	39.991310	7.573513	-5.623794	3.167091	6.528695	7.242043	0.146374	-5.435776	-8.545047	-55.438030	2.133248	20.101118	1.267969	-17.997673	-17.085531	-3.879205	-5.460010	-2.409971	3.871072	7.155907	11.359509	-36.263119	24.375528	-21.730394	3.182248	-1.630146	-2.391525	-1.516161	3.742829	8.785219	0.494499	-13.702786	
-2.457144	34.010872	77.599289	-177.990509	153.317337	1.197439	7.516321	0.126853	-5.839675	-17.115120	51.848381	25.732084	-4.916849	-25.390720	25.921406	-11.119204	-15.691559	-3.760745	-17.579411	74.729439	86.820129	2.377463	-5.681870	-53.904491	-4.899693	39.316444	7.565859	-4.942970	2.483335	5.974313	8.275716	-0.739837	-5.654582	-12.459454	-56.660137	-1.606838	20.423903	1.266888	-18.647558	-16.484436	-3.447091	-6.279694	-2.095802	5.161867	5.982387	11.112939	-34.333729	24.255142	-22.065592	1.945780	-0.847035	-1.501564	-1.228057	3.808870	7.778299	0.868116	-12.478359	
-2.487778	34.017342	77.848824	-177.830200	153.188278	0.653424	7.615085	0.001744	-5.555184	-17.344887	51.610661	25.938244	-4.636875	-25.095974	26.051281	-11.062864	-15.013246	-3.234550	158.631256	104.340721	-89.782288	3.758990	-5.890919	-53.316433	-4.769764	39.014393	7.518396	-4.736529	2.208154	5.785395	8.705105	-0.976816	-5.656274	-14.097702	-57.076313	-3.245666	20.557381	1.275679	-18.927814	-16.299347	-3.325833	-6.513405	-2.108687	5.731908	5.544644	11.184493	-33.816330	24.419641	-22.002890	3.045231	-1.740711	-1.202488	-1.102075	3.798821	7.401738	1.007893	-11.988841	
-2.558550	34.096020	78.552246	-177.479004	153.242447	-0.726683	7.717064	-0.738770	-4.578990	-17.320219	50.770977	25.886364	-3.923578	-23.706165	26.624166	-10.928780	-13.021706	-2.002588	145.841888	102.744843	-78.527740	8.586715	-6.591167	-50.915668	-4.154143	37.724167	7.003141	-4.045460	1.214448	5.264935	9.995020	-1.544625	-5.513916	-20.126898	-58.278248	-9.652585	20.894201	1.323702	-20.000118	-15.765260	-2.941061	-7.242979	-2.650071	7.648749	4.365368	11.897047	-32.758488	25.311577	-22.129999	1.939580	-0.935011	-0.417733	-0.694329	3.914212	6.338309	1.452218	-10.639894	
-2.585969	34.125847	78.782494	-177.444565	153.399750	-1.096901	7.611508	-1.062737	-4.237682	-17.066702	50.392948	25.703850	-3.666227	-23.289696	26.792679	-10.954611	-12.397119	-1.621276	141.898758	102.532578	-75.097618	10.205141	-6.621283	-50.020824	-3.519943	36.833294	6.114484	-4.019506	1.207928	5.498167	10.371582	-1.715312	-5.458803	-27.852131	-60.629829	-20.604885	22.855486	5.218120	-17.949295	-15.883004	-2.557280	-7.019777	-2.796084	9.092648	2.783882	12.959793	-32.497303	26.423645	-22.332104	1.098845	-0.226931	0.259965	-0.538066	3.780395	5.268565	2.091818	-9.677228	
-2.646401	34.336342	79.422226	-177.387451	154.194672	-2.073390	7.254444	-2.045399	-3.101172	-15.646338	48.770847	24.778566	-3.282727	-21.329256	27.039158	-11.156296	-10.370804	-0.691236	133.956406	102.653809	-68.265739	14.301155	-6.258694	-47.767933	-3.238736	35.325874	6.043955	-2.355484	-0.298548	4.494407	11.381013	-2.115817	-5.503622	-29.810129	-59.754013	-20.066542	20.822264	1.364567	-21.931881	-15.040525	-2.504758	-8.296251	-4.269248	10.793145	2.647274	14.319156	-32.120945	27.297321	-22.116861	0.978395	-0.141719	0.973667	-0.425582	3.354800	4.524893	2.447618	-8.366167	
-2.647993	34.432762	79.641785	-177.316132	154.494812	-2.424087	7.205603	-2.326286	-2.708728	-15.036907	48.076904	24.387383	-3.236088	-20.560186	27.063129	-11.165772	-9.609823	-0.415398	132.449814	102.936180	-67.099464	15.526274	-6.199072	-47.081238	-2.151766	34.140217	4.908971	-1.391502	-0.751893	4.249408	10.766238	-1.359061	-5.227248	-32.510765	-60.142452	-22.869246	20.828196	1.358864	-22.409769	-15.415029	-1.958113	-7.915299	-4.701985	11.697821	2.179320	15.142052	-31.912956	27.674006	-22.289347	0.406594	0.361522	0.691015	0.279743	3.715960	4.075888	2.672844	-7.840532	
